<svg width="193" height="113" viewBox="0 0 193 113" fill="none" xmlns="http://www.w3.org/2000/svg">
<path d="M79.1538 45.666C68.9097 47.5407 61.56 47.1449 60.4875 44.1361C58.7967 39.3931 73.3452 29.9528 92.9825 23.0506C112.62 16.1484 129.91 14.3981 131.6 19.1411C132.68 22.1683 127.144 27.109 117.891 32.082" stroke="#364D9D" stroke-width="2"/>
<ellipse cx="95.4646" cy="30.8595" rx="22.9368" ry="22.7755" fill="#364D9D"/>
<path fill-rule="evenodd" clip-rule="evenodd" d="M84.7606 23.912C84.7606 22.9972 85.5074 22.2556 86.4287 22.2556H104.778C105.699 22.2556 106.446 22.9972 106.446 23.912V38.8196C106.446 39.7344 105.699 40.476 104.778 40.476H86.4287C85.5074 40.476 84.7606 39.7344 84.7606 38.8196V23.912ZM104.778 23.912H86.4287V38.8196H104.778V23.912Z" fill="#EDECEE"/>
<path fill-rule="evenodd" clip-rule="evenodd" d="M84.7606 26.3966C84.7606 25.9392 85.134 25.5684 85.5946 25.5684H105.612C106.073 25.5684 106.446 25.9392 106.446 26.3966C106.446 26.854 106.073 27.2248 105.612 27.2248H85.5946C85.134 27.2248 84.7606 26.854 84.7606 26.3966Z" fill="#EDECEE"/>
<path fill-rule="evenodd" clip-rule="evenodd" d="M91.4331 28.8811C91.8937 28.8811 92.2671 29.2519 92.2671 29.7093C92.2671 30.5879 92.6186 31.4305 93.2443 32.0518C93.87 32.6731 94.7186 33.0221 95.6034 33.0221C96.4882 33.0221 97.3368 32.6731 97.9625 32.0518C98.5882 31.4305 98.9396 30.5879 98.9396 29.7093C98.9396 29.2519 99.3131 28.8811 99.7737 28.8811C100.234 28.8811 100.608 29.2519 100.608 29.7093C100.608 31.0272 100.081 32.2912 99.142 33.2231C98.2035 34.155 96.9306 34.6785 95.6034 34.6785C94.2761 34.6785 93.0033 34.155 92.0648 33.2231C91.1262 32.2912 90.599 31.0272 90.599 29.7093C90.599 29.2519 90.9724 28.8811 91.4331 28.8811Z" fill="#EDECEE"/>
<path d="M79.1537 45.666C80.882 45.3497 82.6928 44.9688 84.5697 44.5249M117.891 32.082C116.148 33.0191 114.273 33.9573 112.285 34.8841" stroke="#F7F7F8" stroke-width="2"/>
<path d="M0.565315 107.061C0.188438 107.061 0 106.872 0 106.496V90.9494C0 90.5934 0.146563 90.4155 0.439689 90.4155H3.54892C3.84205 90.4155 3.98861 90.5725 3.98861 90.8866V92.5197C3.98861 92.6453 4.02002 92.7291 4.08283 92.771C4.14564 92.7919 4.22939 92.75 4.33408 92.6453C4.92033 92.1219 5.48565 91.6717 6.03002 91.2949C6.59534 90.918 7.17112 90.6249 7.75737 90.4155C8.36456 90.1852 9.00316 90.07 9.67316 90.07C10.8457 90.07 11.8088 90.3422 12.5625 90.8866C13.3163 91.4309 13.8397 92.1219 14.1329 92.9594C14.1747 93.0431 14.2376 93.0745 14.3213 93.0536C14.4051 93.0327 14.4888 92.9803 14.5726 92.8966C15.1169 92.3522 15.6927 91.8706 16.2999 91.4519C16.9071 91.0331 17.5352 90.7086 18.1843 90.4783C18.8334 90.227 19.4824 90.1014 20.1315 90.1014C21.6181 90.1014 22.7906 90.5516 23.649 91.4519C24.5074 92.3313 24.9367 93.5352 24.9367 95.0636V106.401C24.9367 106.841 24.7168 107.061 24.2771 107.061H21.3877C21.1993 107.061 21.0632 107.019 20.9795 106.935C20.8957 106.851 20.8538 106.705 20.8538 106.496V95.6917C20.8538 94.8752 20.6445 94.2471 20.2257 93.8074C19.8279 93.3467 19.2207 93.1164 18.4041 93.1164C17.9226 93.1164 17.4619 93.2106 17.0223 93.3991C16.5826 93.5666 16.1848 93.7864 15.8288 94.0586C15.4729 94.3308 15.1588 94.603 14.8866 94.8752C14.7401 95.0217 14.6354 95.1683 14.5726 95.3149C14.5307 95.4405 14.5097 95.5975 14.5097 95.786V106.401C14.5097 106.841 14.2899 107.061 13.8502 107.061H10.9608C10.7933 107.061 10.6572 107.019 10.5525 106.935C10.4688 106.851 10.4269 106.705 10.4269 106.496V95.6917C10.4269 94.8752 10.228 94.2471 9.83019 93.8074C9.43238 93.3467 8.81472 93.1164 7.97722 93.1164C7.26534 93.1164 6.60581 93.2944 5.99862 93.6503C5.41237 94.0063 4.77377 94.5402 4.08283 95.2521V106.433C4.08283 106.851 3.84205 107.061 3.36048 107.061H0.565315Z" fill="#1A181B"/>
<path d="M37.878 105.334C37.1662 105.962 36.3915 106.464 35.554 106.841C34.7165 107.197 33.7638 107.375 32.696 107.375C31.0838 107.375 29.8171 106.956 28.8958 106.119C27.9955 105.26 27.5454 104.151 27.5454 102.79C27.5454 101.638 27.8908 100.643 28.5818 99.806C29.2727 98.9475 30.2777 98.2775 31.5968 97.796C32.9158 97.3144 34.4966 97.0318 36.3391 96.948L37.9095 96.8538C38.0351 96.8328 38.1502 96.791 38.2549 96.7282C38.3596 96.6653 38.412 96.5502 38.412 96.3827V95.6603C38.412 94.7391 38.1398 94.0272 37.5954 93.5247C37.051 93.0013 36.2973 92.7395 35.3341 92.7395C34.6013 92.7395 33.9104 92.907 33.2613 93.242C32.6332 93.5561 32.0888 94.0796 31.6282 94.8124C31.5654 94.938 31.4921 95.0217 31.4083 95.0636C31.3455 95.1055 31.2199 95.1055 31.0315 95.0636L28.3933 94.4041C28.2886 94.3622 28.2049 94.2994 28.1421 94.2156C28.1002 94.1319 28.1421 93.9644 28.2677 93.7131C28.833 92.5197 29.7229 91.6194 30.9372 91.0122C32.1726 90.405 33.701 90.1014 35.5226 90.1014C37.1348 90.1014 38.4329 90.3213 39.417 90.7609C40.422 91.2006 41.1548 91.8183 41.6154 92.6139C42.076 93.3886 42.3063 94.3099 42.3063 95.3777V106.433C42.3063 106.663 42.2645 106.831 42.1807 106.935C42.1179 107.019 41.9818 107.061 41.7724 107.061H39.1029C38.9145 107.061 38.7784 106.988 38.6946 106.841C38.6109 106.694 38.5585 106.516 38.5376 106.307L38.4748 105.365C38.4329 105.009 38.234 104.998 37.878 105.334ZM38.412 99.4605C38.412 99.0836 38.2549 98.9057 37.9409 98.9266L36.6532 99.0208C35.9832 99.0627 35.3341 99.1674 34.706 99.3349C34.0988 99.4814 33.5544 99.6908 33.0729 99.963C32.6122 100.214 32.2354 100.539 31.9422 100.937C31.6701 101.313 31.534 101.764 31.534 102.287C31.534 102.999 31.7852 103.564 32.2877 103.983C32.8112 104.402 33.5126 104.611 34.3919 104.611C34.9573 104.611 35.4807 104.517 35.9623 104.328C36.4438 104.14 36.8626 103.899 37.2185 103.606C37.5745 103.313 37.8571 103.009 38.0665 102.695C38.2968 102.36 38.412 102.025 38.412 101.69V99.4605Z" fill="#1A181B"/>
<path d="M46.7854 107.061C46.5761 107.061 46.4295 107.019 46.3457 106.935C46.262 106.831 46.2201 106.684 46.2201 106.496V90.9494C46.2201 90.5934 46.3667 90.4155 46.6598 90.4155H49.7062C49.9994 90.4155 50.1459 90.5725 50.1459 90.8866V92.8024C50.1459 92.928 50.1878 93.0117 50.2715 93.0536C50.3553 93.0745 50.4495 93.0222 50.5542 92.8966C51.0148 92.2894 51.5069 91.7869 52.0303 91.3891C52.5747 90.9703 53.1191 90.6563 53.6634 90.4469C54.2287 90.2166 54.7731 90.1014 55.2966 90.1014C56.0503 90.1014 56.4272 90.2689 56.4272 90.6039V93.6189C56.4272 93.9121 56.2911 94.0377 56.0189 93.9958C55.7048 93.9121 55.3698 93.8597 55.0139 93.8388C54.6789 93.7969 54.3648 93.776 54.0717 93.776C53.6739 93.776 53.2447 93.8597 52.784 94.0272C52.3444 94.1947 51.9361 94.4355 51.5592 94.7496C51.1823 95.0427 50.8787 95.3672 50.6484 95.7232C50.4181 96.0791 50.3029 96.4455 50.3029 96.8224V106.433C50.3029 106.851 50.0622 107.061 49.5806 107.061H46.7854Z" fill="#1A181B"/>
<path d="M74.9297 106.401C75.0344 106.548 75.0553 106.694 74.9925 106.841C74.9297 106.988 74.7831 107.061 74.5528 107.061H71.0981C70.9097 107.061 70.7527 107.019 70.627 106.935C70.5223 106.831 70.4281 106.684 70.3444 106.496L66.5756 99.4605C66.5128 99.3139 66.45 99.2302 66.3872 99.2093C66.3244 99.1883 66.2302 99.2407 66.1045 99.3663L63.4978 101.942C63.414 102.025 63.3408 102.12 63.2779 102.224C63.2361 102.329 63.2151 102.476 63.2151 102.664V106.37C63.2151 106.621 63.1628 106.799 63.0581 106.904C62.9534 107.009 62.765 107.061 62.4928 107.061H59.7604C59.5092 107.061 59.3417 107.019 59.2579 106.935C59.1742 106.831 59.1323 106.684 59.1323 106.496V84.2912C59.1323 83.9353 59.2893 83.7573 59.6034 83.7573H62.7755C63.0686 83.7573 63.2151 83.9248 63.2151 84.2598V97.7332C63.2151 97.8588 63.2465 97.9425 63.3094 97.9844C63.3722 98.0263 63.4664 97.9739 63.592 97.8274L70.1245 90.8552C70.4177 90.562 70.6794 90.4155 70.9097 90.4155H73.7677C74.0399 90.4155 74.1969 90.4888 74.2388 90.6353C74.3016 90.7819 74.2388 90.9494 74.0503 91.1378L69.4336 95.786C69.3499 95.8907 69.2975 95.9953 69.2766 96.1C69.2556 96.2047 69.2975 96.3617 69.4022 96.5711L74.9297 106.401Z" fill="#1A181B"/>
<path d="M79.9143 100.026C79.9143 100.884 80.1132 101.659 80.511 102.35C80.9088 103.02 81.4532 103.554 82.1441 103.952C82.856 104.328 83.6307 104.517 84.4682 104.517C85.3266 104.517 86.1013 104.339 86.7922 103.983C87.5041 103.627 88.1741 103.051 88.8023 102.256C88.886 102.151 88.9593 102.099 89.0221 102.099C89.0849 102.078 89.1896 102.109 89.3362 102.193L91.252 103.041C91.5241 103.166 91.5556 103.355 91.3462 103.606C90.718 104.527 90.0376 105.271 89.3048 105.836C88.5929 106.38 87.7972 106.778 86.9179 107.029C86.0594 107.26 85.0858 107.375 83.9971 107.375C82.4058 107.375 80.9821 107.019 79.7258 106.307C78.4696 105.595 77.475 104.611 76.7422 103.355C76.0303 102.078 75.6744 100.612 75.6744 98.958C75.6744 97.1364 76.0408 95.5661 76.7736 94.2471C77.5274 92.928 78.5324 91.9125 79.7886 91.2006C81.0449 90.4678 82.4268 90.1014 83.9343 90.1014C85.5255 90.1014 86.9074 90.4469 88.0799 91.1378C89.2733 91.8288 90.2051 92.8233 90.8751 94.1214C91.5451 95.3986 91.8801 96.9585 91.8801 98.801C91.8801 99.0104 91.8591 99.1779 91.8173 99.3035C91.7963 99.4291 91.6498 99.5024 91.3776 99.5233H80.2597C80.1341 99.5233 80.0399 99.5652 79.9771 99.6489C79.9352 99.7327 79.9143 99.8583 79.9143 100.026ZM87.3576 97.1993C87.5669 97.1993 87.703 97.1783 87.7658 97.1364C87.8496 97.0736 87.8915 96.948 87.8915 96.7596C87.8915 96.1105 87.7449 95.4719 87.4518 94.8438C87.1587 94.2156 86.7294 93.7027 86.1641 93.3049C85.5988 92.8861 84.9079 92.6767 84.0913 92.6767C83.2538 92.6767 82.521 92.8861 81.8928 93.3049C81.2647 93.7027 80.7832 94.2471 80.4482 94.938C80.1341 95.608 79.9771 96.3617 79.9771 97.1993H87.3576Z" fill="#1A181B"/>
<path d="M100.557 93.2735C100.348 93.2735 100.243 93.3886 100.243 93.6189V102.004C100.243 102.821 100.411 103.386 100.746 103.7C101.081 104.014 101.604 104.171 102.316 104.171H104.169C104.295 104.171 104.399 104.213 104.483 104.297C104.567 104.381 104.609 104.486 104.609 104.611L104.577 106.244C104.577 106.579 104.378 106.789 103.981 106.872C103.667 106.914 103.3 106.956 102.881 106.998C102.463 107.019 102.044 107.04 101.625 107.061C101.227 107.061 100.861 107.061 100.526 107.061C99.1231 107.061 98.0448 106.736 97.2911 106.087C96.5373 105.417 96.1604 104.412 96.1604 103.072V93.6817C96.1604 93.4096 96.0348 93.2735 95.7835 93.2735H93.6793C93.3443 93.2735 93.1768 93.1164 93.1768 92.8024V90.8238C93.1768 90.5516 93.3338 90.4155 93.6479 90.4155H95.972C96.1604 90.4155 96.2546 90.3108 96.2546 90.1014L96.6629 85.2648C96.6839 84.9298 96.8304 84.7623 97.1026 84.7623H99.8978C100.191 84.7623 100.337 84.9403 100.337 85.2962V90.1014C100.337 90.2899 100.432 90.3841 100.62 90.3841H104.169C104.483 90.3841 104.64 90.5306 104.64 90.8238V92.8024C104.64 93.1164 104.462 93.2735 104.106 93.2735H100.557Z" fill="#1A181B"/>
<path d="M117.736 94.5297C117.339 94.0063 116.815 93.5666 116.166 93.2106C115.517 92.8547 114.721 92.6767 113.779 92.6767C112.879 92.6767 112.125 92.8547 111.518 93.2106C110.911 93.5666 110.607 94.0691 110.607 94.7181C110.607 95.0322 110.733 95.3358 110.984 95.6289C111.235 95.9221 111.79 96.1838 112.649 96.4141L116.386 97.4191C118.019 97.8169 119.181 98.445 119.872 99.3035C120.584 100.141 120.94 101.094 120.94 102.161C120.94 103.25 120.626 104.182 119.998 104.957C119.39 105.731 118.532 106.328 117.422 106.747C116.334 107.166 115.088 107.375 113.685 107.375C111.884 107.375 110.345 107.05 109.068 106.401C107.791 105.731 106.891 104.904 106.367 103.92C106.304 103.795 106.273 103.679 106.273 103.575C106.273 103.449 106.325 103.344 106.43 103.261L108.283 102.318C108.451 102.214 108.587 102.172 108.691 102.193C108.796 102.214 108.88 102.266 108.943 102.35C109.257 102.79 109.613 103.187 110.01 103.543C110.429 103.899 110.932 104.182 111.518 104.391C112.125 104.601 112.858 104.695 113.716 104.674C114.365 104.674 114.952 104.59 115.475 104.423C116.019 104.255 116.449 104.025 116.763 103.732C117.077 103.418 117.234 103.041 117.234 102.601C117.234 102.182 117.056 101.816 116.7 101.502C116.344 101.188 115.705 100.916 114.784 100.685L111.581 99.9316C109.989 99.5547 108.817 98.9894 108.063 98.2357C107.33 97.4819 106.964 96.5397 106.964 95.4091C106.964 94.3622 107.236 93.441 107.781 92.6453C108.346 91.8497 109.141 91.232 110.167 90.7924C111.193 90.3317 112.408 90.1014 113.811 90.1014C115.36 90.1014 116.7 90.3841 117.831 90.9494C118.961 91.5147 119.788 92.2161 120.312 93.0536C120.395 93.1583 120.448 93.2735 120.469 93.3991C120.511 93.5247 120.458 93.6294 120.312 93.7131L118.364 94.6867C118.239 94.7496 118.124 94.7705 118.019 94.7496C117.914 94.7077 117.82 94.6344 117.736 94.5297Z" fill="#1A181B"/>
<path d="M127.517 90.4155C127.915 90.4155 128.113 90.6039 128.113 90.9808V92.0486C128.113 92.1952 128.155 92.2789 128.239 92.2999C128.323 92.2999 128.417 92.2475 128.522 92.1428C128.836 91.8497 129.192 91.5461 129.59 91.232C130.008 90.918 130.511 90.6563 131.097 90.4469C131.683 90.2166 132.395 90.1014 133.233 90.1014C134.489 90.1014 135.609 90.4155 136.593 91.0436C137.577 91.6508 138.362 92.5825 138.949 93.8388C139.535 95.0741 139.828 96.6444 139.828 98.5497C139.828 100.518 139.535 102.161 138.949 103.481C138.362 104.779 137.546 105.752 136.499 106.401C135.473 107.05 134.29 107.375 132.95 107.375C132.092 107.375 131.306 107.239 130.595 106.967C129.883 106.694 129.244 106.297 128.679 105.773C128.469 105.585 128.323 105.501 128.239 105.522C128.155 105.543 128.113 105.689 128.113 105.962V111.74C128.113 112.075 127.967 112.243 127.674 112.243H124.47C124.177 112.243 124.031 112.075 124.031 111.74V91.0436C124.031 90.8133 124.073 90.6563 124.156 90.5725C124.24 90.4678 124.408 90.4155 124.659 90.4155H127.517ZM128.113 102.978C128.595 103.501 129.108 103.92 129.652 104.234C130.218 104.548 130.846 104.705 131.537 104.705C132.374 104.705 133.097 104.496 133.704 104.077C134.332 103.638 134.813 102.968 135.148 102.067C135.504 101.146 135.682 99.963 135.682 98.5183C135.682 97.0946 135.504 95.9639 135.148 95.1264C134.813 94.2889 134.332 93.6922 133.704 93.3363C133.097 92.9594 132.416 92.771 131.662 92.771C130.971 92.771 130.354 92.9175 129.809 93.2106C129.286 93.4828 128.867 93.8388 128.553 94.2785C128.26 94.7181 128.113 95.1788 128.113 95.6603V102.978Z" fill="#1A181B"/>
<path d="M152.217 105.334C151.505 105.962 150.73 106.464 149.893 106.841C149.055 107.197 148.103 107.375 147.035 107.375C145.423 107.375 144.156 106.956 143.235 106.119C142.334 105.26 141.884 104.151 141.884 102.79C141.884 101.638 142.23 100.643 142.921 99.806C143.612 98.9475 144.617 98.2775 145.936 97.796C147.255 97.3144 148.835 97.0318 150.678 96.948L152.248 96.8538C152.374 96.8328 152.489 96.791 152.594 96.7282C152.698 96.6653 152.751 96.5502 152.751 96.3827V95.6603C152.751 94.7391 152.479 94.0272 151.934 93.5247C151.39 93.0013 150.636 92.7395 149.673 92.7395C148.94 92.7395 148.249 92.907 147.6 93.242C146.972 93.5561 146.428 94.0796 145.967 94.8124C145.904 94.938 145.831 95.0217 145.747 95.0636C145.684 95.1055 145.559 95.1055 145.37 95.0636L142.732 94.4041C142.627 94.3622 142.544 94.2994 142.481 94.2156C142.439 94.1319 142.481 93.9644 142.607 93.7131C143.172 92.5197 144.062 91.6194 145.276 91.0122C146.511 90.405 148.04 90.1014 149.861 90.1014C151.474 90.1014 152.772 90.3213 153.756 90.7609C154.761 91.2006 155.494 91.8183 155.954 92.6139C156.415 93.3886 156.645 94.3099 156.645 95.3777V106.433C156.645 106.663 156.603 106.831 156.52 106.935C156.457 107.019 156.321 107.061 156.111 107.061H153.442C153.253 107.061 153.117 106.988 153.033 106.841C152.95 106.694 152.897 106.516 152.876 106.307L152.814 105.365C152.772 105.009 152.573 104.998 152.217 105.334ZM152.751 99.4605C152.751 99.0836 152.594 98.9057 152.28 98.9266L150.992 99.0208C150.322 99.0627 149.673 99.1674 149.045 99.3349C148.438 99.4814 147.893 99.6908 147.412 99.963C146.951 100.214 146.574 100.539 146.281 100.937C146.009 101.313 145.873 101.764 145.873 102.287C145.873 102.999 146.124 103.564 146.627 103.983C147.15 104.402 147.851 104.611 148.731 104.611C149.296 104.611 149.82 104.517 150.301 104.328C150.783 104.14 151.201 103.899 151.557 103.606C151.913 103.313 152.196 103.009 152.405 102.695C152.636 102.36 152.751 102.025 152.751 101.69V99.4605Z" fill="#1A181B"/>
<path d="M167.908 90.1014C169.164 90.1014 170.253 90.3213 171.174 90.7609C172.096 91.1797 172.849 91.7345 173.436 92.4255C174.043 93.0955 174.503 93.8074 174.817 94.5611C174.943 94.938 174.838 95.1369 174.503 95.1578L171.74 95.5033C171.53 95.5452 171.384 95.451 171.3 95.2207C171.028 94.76 170.745 94.3517 170.452 93.9958C170.159 93.6399 169.824 93.3572 169.447 93.1478C169.07 92.9385 168.609 92.8338 168.065 92.8338C167.228 92.8338 166.484 93.0641 165.835 93.5247C165.207 93.9644 164.715 94.6239 164.359 95.5033C164.024 96.3827 163.857 97.461 163.857 98.7382C163.857 100.036 164.035 101.125 164.391 102.004C164.767 102.884 165.28 103.554 165.929 104.014C166.578 104.454 167.353 104.674 168.254 104.674C169.196 104.674 169.97 104.433 170.578 103.952C171.185 103.449 171.75 102.758 172.274 101.879C172.336 101.795 172.399 101.743 172.462 101.722C172.525 101.701 172.629 101.711 172.776 101.753L174.755 102.287C174.964 102.35 175.027 102.528 174.943 102.821C174.734 103.303 174.43 103.816 174.032 104.36C173.655 104.904 173.184 105.407 172.619 105.867C172.054 106.307 171.373 106.674 170.578 106.967C169.803 107.239 168.913 107.375 167.908 107.375C166.317 107.375 164.903 107.019 163.668 106.307C162.433 105.574 161.459 104.569 160.747 103.292C160.056 101.994 159.711 100.497 159.711 98.801C159.711 97.0841 160.067 95.5766 160.779 94.2785C161.491 92.9594 162.464 91.9334 163.7 91.2006C164.935 90.4678 166.338 90.1014 167.908 90.1014Z" fill="#1A181B"/>
<path d="M181.034 100.026C181.034 100.884 181.233 101.659 181.631 102.35C182.029 103.02 182.573 103.554 183.264 103.952C183.976 104.328 184.751 104.517 185.588 104.517C186.447 104.517 187.221 104.339 187.912 103.983C188.624 103.627 189.294 103.051 189.922 102.256C190.006 102.151 190.079 102.099 190.142 102.099C190.205 102.078 190.31 102.109 190.456 102.193L192.372 103.041C192.644 103.166 192.675 103.355 192.466 103.606C191.838 104.527 191.157 105.271 190.425 105.836C189.713 106.38 188.917 106.778 188.038 107.029C187.179 107.26 186.206 107.375 185.117 107.375C183.526 107.375 182.102 107.019 180.846 106.307C179.589 105.595 178.595 104.611 177.862 103.355C177.15 102.078 176.794 100.612 176.794 98.958C176.794 97.1364 177.161 95.5661 177.894 94.2471C178.647 92.928 179.652 91.9125 180.909 91.2006C182.165 90.4678 183.547 90.1014 185.054 90.1014C186.645 90.1014 188.027 90.4469 189.2 91.1378C190.393 91.8288 191.325 92.8233 191.995 94.1214C192.665 95.3986 193 96.9585 193 98.801C193 99.0104 192.979 99.1779 192.937 99.3035C192.916 99.4291 192.77 99.5024 192.498 99.5233H181.38C181.254 99.5233 181.16 99.5652 181.097 99.6489C181.055 99.7327 181.034 99.8583 181.034 100.026ZM188.477 97.1993C188.687 97.1993 188.823 97.1783 188.886 97.1364C188.97 97.0736 189.011 96.948 189.011 96.7596C189.011 96.1105 188.865 95.4719 188.572 94.8438C188.279 94.2156 187.849 93.7027 187.284 93.3049C186.719 92.8861 186.028 92.6767 185.211 92.6767C184.374 92.6767 183.641 92.8861 183.013 93.3049C182.385 93.7027 181.903 94.2471 181.568 94.938C181.254 95.608 181.097 96.3617 181.097 97.1993H188.477Z" fill="#1A181B"/>
</svg>
